<?xml version="1.0" encoding="utf-8" ?>
<svg baseProfile="full" height="297mm" version="1.1" viewBox="0 0 4961 3508" width="420mm" xmlns="http://www.w3.org/2000/svg" xmlns:ev="http://www.w3.org/2001/xml-events" xmlns:xlink="http://www.w3.org/1999/xlink"><defs><style type="text/css"><![CDATA[@font-face {
  font-family: 'BenchNine';
  font-style: normal;
  font-weight: 300;
  src: url(https://fonts.gstatic.com/s/benchnine/v16/ahcev8612zF4jxrwMosT--thgmy4.ttf) format('truetype');
}
@font-face {
  font-family: 'BenchNine';
  font-style: normal;
  font-weight: 400;
  src: url(https://fonts.gstatic.com/s/benchnine/v16/ahcbv8612zF4jxrwMosbUMlx.ttf) format('truetype');
}
@font-face {
  font-family: 'BenchNine';
  font-style: normal;
  font-weight: 700;
  src: url(https://fonts.gstatic.com/s/benchnine/v16/ahcev8612zF4jxrwMosT6-xhgmy4.ttf) format('truetype');
}
@font-face {
  font-family: 'Pragati Narrow';
  font-style: normal;
  font-weight: 700;
  src: url(https://fonts.gstatic.com/s/pragatinarrow/v14/vm8sdRf0T0bS1ffgsPB7WZ-mD2ZD5cd4Epc.ttf) format('truetype');
}
@font-face {
  font-family: 'Rubik';
  font-style: normal;
  font-weight: 400;
  src: url(https://fonts.gstatic.com/s/rubik/v28/iJWZBXyIfDnIV5PNhY1KTN7Z-Yh-B4iFV0Uw.ttf) format('truetype');
}
@font-face {
  font-family: 'Ruslan Display';
  font-style: normal;
  font-weight: 400;
  src: url(https://fonts.gstatic.com/s/ruslandisplay/v26/Gw6jwczl81XcIZuckK_e3Upfdwxsn9g.ttf) format('truetype');
}
@font-face {
  font-family: 'Work Sans';
  font-style: normal;
  font-weight: 700;
  src: url(https://fonts.gstatic.com/s/worksans/v19/QGY_z_wNahGAdqQ43RhVcIgYT2Xz5u32K67QBi8Jow.ttf) format('truetype');
}
@font-face {
  font-family: 'Work Sans';
  font-style: normal;
  font-weight: 800;
  src: url(https://fonts.gstatic.com/s/worksans/v19/QGY_z_wNahGAdqQ43RhVcIgYT2Xz5u32K8nQBi8Jow.ttf) format('truetype');
}
@font-face {
  font-family: 'Work Sans';
  font-style: normal;
  font-weight: 900;
  src: url(https://fonts.gstatic.com/s/worksans/v19/QGY_z_wNahGAdqQ43RhVcIgYT2Xz5u32K-DQBi8Jow.ttf) format('truetype');
}
]]></style></defs><g transform="translate(2480.5,1754.0)"><rect fill="white" fill-opacity="1.0" height="3508" rx="0" ry="0" stroke="black" stroke-opacity="1.0" stroke-width="50" width="4961" x="-2480.5" y="-1754.0" /></g><circle cx="1347.5" cy="792.375" fill="black" fill-opacity="0.0" r="22.5" stroke="black" stroke-opacity="1" stroke-width="2" /><circle color="black" cx="1347.5" cy="792.375" opacity="1" r="15.0" stroke="black" /><g transform="translate(1265.0,792.375)"><polyline fill="none" opacity="1.0" points="0,0 60,0" stroke="black" stroke-width="10" /></g><g transform="translate(1215.0,792.375)"><rect fill="white" fill-opacity="1.0" height="55" rx="2" ry="2" stroke="grey" stroke-opacity="1.0" stroke-width="2" width="100" x="-50.0" y="-27.5" /><text fill="black" font-family="Work Sans" font-size="25" font-stretch="normal" font-style="normal" font-weight="700" stroke="yellow" stroke-opacity="1" stroke-width="0.1" text-anchor="middle" x="0" y="8.333333333333334">GND</text></g><text fill="black" font-family="Rubik" font-size="25" font-stretch="normal" font-style="normal" font-weight="700" text-anchor="end" x="1155" y="802.25">Ground Reference</text><circle cx="1347.5" cy="867.125" fill="chocolate" fill-opacity="0.5" r="22.5" stroke="black" stroke-opacity="1" stroke-width="2" /><circle color="black" cx="1347.5" cy="867.125" opacity="1" r="15.0" stroke="black" /><g transform="translate(1265.0,867.125)"><polyline fill="none" opacity="1.0" points="0,0 60,0" stroke="black" stroke-width="10" /></g><g transform="translate(1215.0,867.125)"><rect fill="white" fill-opacity="1.0" height="55" rx="2" ry="2" stroke="grey" stroke-opacity="1.0" stroke-width="2" width="100" x="-50.0" y="-27.5" /><text fill="black" font-family="Work Sans" font-size="25" font-stretch="normal" font-style="normal" font-weight="700" stroke="yellow" stroke-opacity="1" stroke-width="0.1" text-anchor="middle" x="0" y="8.333333333333334">RST</text></g><text fill="black" font-family="Rubik" font-size="25" font-stretch="normal" font-style="normal" font-weight="700" text-anchor="end" x="1155" y="877.0">Board Master Reset (Active Low)</text><circle cx="1347.5" cy="941.875" fill="chartreuse" fill-opacity="0.5" r="22.5" stroke="black" stroke-opacity="1" stroke-width="2" /><circle color="black" cx="1347.5" cy="941.875" opacity="1" r="15.0" stroke="black" /><g transform="translate(1265.0,941.875)"><polyline fill="none" opacity="1.0" points="0,0 60,0" stroke="black" stroke-width="5" /></g><g transform="translate(1215.0,941.875)"><rect fill="white" fill-opacity="1.0" height="55" rx="2" ry="2" stroke="grey" stroke-opacity="1.0" stroke-width="2" width="100" x="-50.0" y="-27.5" /><text fill="black" font-family="Work Sans" font-size="25" font-stretch="normal" font-style="normal" font-weight="700" stroke="yellow" stroke-opacity="1" stroke-width="0.1" text-anchor="middle" x="0" y="8.333333333333334">PA0</text></g><circle cx="1347.5" cy="1016.625" fill="chartreuse" fill-opacity="0.5" r="22.5" stroke="black" stroke-opacity="1" stroke-width="2" /><circle color="black" cx="1347.5" cy="1016.625" opacity="1" r="15.0" stroke="black" /><g transform="translate(1265.0,1016.625)"><polyline fill="none" opacity="1.0" points="0,0 60,0" stroke="black" stroke-width="5" /></g><g transform="translate(1215.0,1016.625)"><rect fill="white" fill-opacity="1.0" height="55" rx="2" ry="2" stroke="grey" stroke-opacity="1.0" stroke-width="2" width="100" x="-50.0" y="-27.5" /><text fill="black" font-family="Work Sans" font-size="25" font-stretch="normal" font-style="normal" font-weight="700" stroke="yellow" stroke-opacity="1" stroke-width="0.1" text-anchor="middle" x="0" y="8.333333333333334">PA1</text></g><circle cx="1347.5" cy="1091.375" fill="chartreuse" fill-opacity="0.5" r="22.5" stroke="black" stroke-opacity="1" stroke-width="2" /><circle color="black" cx="1347.5" cy="1091.375" opacity="1" r="15.0" stroke="black" /><g transform="translate(1265.0,1091.375)"><polyline fill="none" opacity="1.0" points="0,0 60,0" stroke="black" stroke-width="5" /></g><g transform="translate(1215.0,1091.375)"><rect fill="white" fill-opacity="1.0" height="55" rx="2" ry="2" stroke="grey" stroke-opacity="1.0" stroke-width="2" width="100" x="-50.0" y="-27.5" /><text fill="black" font-family="Work Sans" font-size="25" font-stretch="normal" font-style="normal" font-weight="700" stroke="yellow" stroke-opacity="1" stroke-width="0.1" text-anchor="middle" x="0" y="8.333333333333334">PA2</text></g><circle cx="1347.5" cy="1166.125" fill="chartreuse" fill-opacity="0.5" r="22.5" stroke="black" stroke-opacity="1" stroke-width="2" /><circle color="black" cx="1347.5" cy="1166.125" opacity="1" r="15.0" stroke="black" /><g transform="translate(1265.0,1166.125)"><polyline fill="none" opacity="1.0" points="0,0 60,0" stroke="black" stroke-width="5" /></g><g transform="translate(1215.0,1166.125)"><rect fill="white" fill-opacity="1.0" height="55" rx="2" ry="2" stroke="grey" stroke-opacity="1.0" stroke-width="2" width="100" x="-50.0" y="-27.5" /><text fill="black" font-family="Work Sans" font-size="25" font-stretch="normal" font-style="normal" font-weight="700" stroke="yellow" stroke-opacity="1" stroke-width="0.1" text-anchor="middle" x="0" y="8.333333333333334">PA3</text></g><circle cx="1347.5" cy="1240.875" fill="chartreuse" fill-opacity="0.5" r="22.5" stroke="black" stroke-opacity="1" stroke-width="2" /><circle color="black" cx="1347.5" cy="1240.875" opacity="1" r="15.0" stroke="black" /><g transform="translate(1265.0,1240.875)"><polyline fill="none" opacity="1.0" points="0,0 60,0" stroke="black" stroke-width="5" /></g><g transform="translate(1215.0,1240.875)"><rect fill="white" fill-opacity="1.0" height="55" rx="2" ry="2" stroke="grey" stroke-opacity="1.0" stroke-width="2" width="100" x="-50.0" y="-27.5" /><text fill="black" font-family="Work Sans" font-size="25" font-stretch="normal" font-style="normal" font-weight="700" stroke="yellow" stroke-opacity="1" stroke-width="0.1" text-anchor="middle" x="0" y="8.333333333333334">PA4</text></g><circle cx="1347.5" cy="1315.625" fill="chartreuse" fill-opacity="0.5" r="22.5" stroke="black" stroke-opacity="1" stroke-width="2" /><circle color="black" cx="1347.5" cy="1315.625" opacity="1" r="15.0" stroke="black" /><g transform="translate(1265.0,1315.625)"><polyline fill="none" opacity="1.0" points="0,0 60,0" stroke="black" stroke-width="5" /></g><g transform="translate(1215.0,1315.625)"><rect fill="white" fill-opacity="1.0" height="55" rx="2" ry="2" stroke="grey" stroke-opacity="1.0" stroke-width="2" width="100" x="-50.0" y="-27.5" /><text fill="black" font-family="Work Sans" font-size="25" font-stretch="normal" font-style="normal" font-weight="700" stroke="yellow" stroke-opacity="1" stroke-width="0.1" text-anchor="middle" x="0" y="8.333333333333334">PA5</text></g><circle cx="1347.5" cy="1390.375" fill="chartreuse" fill-opacity="0.5" r="22.5" stroke="black" stroke-opacity="1" stroke-width="2" /><circle color="black" cx="1347.5" cy="1390.375" opacity="1" r="15.0" stroke="black" /><g transform="translate(1265.0,1390.375)"><polyline fill="none" opacity="1.0" points="0,0 60,0" stroke="black" stroke-width="5" /></g><g transform="translate(1215.0,1390.375)"><rect fill="white" fill-opacity="1.0" height="55" rx="2" ry="2" stroke="grey" stroke-opacity="1.0" stroke-width="2" width="100" x="-50.0" y="-27.5" /><text fill="black" font-family="Work Sans" font-size="25" font-stretch="normal" font-style="normal" font-weight="700" stroke="yellow" stroke-opacity="1" stroke-width="0.1" text-anchor="middle" x="0" y="8.333333333333334">PA6</text></g><circle cx="1347.5" cy="1465.125" fill="chartreuse" fill-opacity="0.5" r="22.5" stroke="black" stroke-opacity="1" stroke-width="2" /><circle color="black" cx="1347.5" cy="1465.125" opacity="1" r="15.0" stroke="black" /><g transform="translate(1265.0,1465.125)"><polyline fill="none" opacity="1.0" points="0,0 60,0" stroke="black" stroke-width="5" /></g><g transform="translate(1215.0,1465.125)"><rect fill="white" fill-opacity="1.0" height="55" rx="2" ry="2" stroke="grey" stroke-opacity="1.0" stroke-width="2" width="100" x="-50.0" y="-27.5" /><text fill="black" font-family="Work Sans" font-size="25" font-stretch="normal" font-style="normal" font-weight="700" stroke="yellow" stroke-opacity="1" stroke-width="0.1" text-anchor="middle" x="0" y="8.333333333333334">PA7</text></g><circle cx="1347.5" cy="1539.875" fill="deepskyblue" fill-opacity="0.5" r="22.5" stroke="black" stroke-opacity="1" stroke-width="2" /><circle color="black" cx="1347.5" cy="1539.875" opacity="1" r="15.0" stroke="black" /><g transform="translate(1265.0,1539.875)"><polyline fill="none" opacity="1.0" points="0,0 60,0" stroke="black" stroke-width="5" /></g><g transform="translate(1215.0,1539.875)"><rect fill="white" fill-opacity="1.0" height="55" rx="2" ry="2" stroke="grey" stroke-opacity="1.0" stroke-width="2" width="100" x="-50.0" y="-27.5" /><text fill="black" font-family="Work Sans" font-size="25" font-stretch="normal" font-style="normal" font-weight="700" stroke="yellow" stroke-opacity="1" stroke-width="0.1" text-anchor="middle" x="0" y="8.333333333333334">PB0</text></g><circle cx="1347.5" cy="1614.625" fill="deepskyblue" fill-opacity="0.5" r="22.5" stroke="black" stroke-opacity="1" stroke-width="2" /><circle color="black" cx="1347.5" cy="1614.625" opacity="1" r="15.0" stroke="black" /><g transform="translate(1265.0,1614.625)"><polyline fill="none" opacity="1.0" points="0,0 60,0" stroke="black" stroke-width="5" /></g><g transform="translate(1215.0,1614.625)"><rect fill="white" fill-opacity="1.0" height="55" rx="2" ry="2" stroke="grey" stroke-opacity="1.0" stroke-width="2" width="100" x="-50.0" y="-27.5" /><text fill="black" font-family="Work Sans" font-size="25" font-stretch="normal" font-style="normal" font-weight="700" stroke="yellow" stroke-opacity="1" stroke-width="0.1" text-anchor="middle" x="0" y="8.333333333333334">PB1</text></g><circle cx="1347.5" cy="1689.375" fill="black" fill-opacity="0.0" r="22.5" stroke="black" stroke-opacity="1" stroke-width="2" /><g transform="translate(1347.5,1689.375)"><polygon fill="black" opacity="1" points="7.5,12.990381056766578 7.5,-12.990381056766578 -15.0,0" stroke="black" /></g><g transform="translate(1265.0,1689.375)"><polyline fill="none" opacity="1.0" points="0,0 60,0" stroke="black" stroke-width="10" /></g><g transform="translate(1215.0,1689.375)"><rect fill="white" fill-opacity="1.0" height="55" rx="2" ry="2" stroke="grey" stroke-opacity="1.0" stroke-width="2" width="100" x="-50.0" y="-27.5" /><text fill="black" font-family="Work Sans" font-size="25" font-stretch="normal" font-style="normal" font-weight="700" stroke="yellow" stroke-opacity="1" stroke-width="0.1" text-anchor="middle" x="0" y="8.333333333333334">+3.3V</text></g><text fill="black" font-family="Rubik" font-size="25" font-stretch="normal" font-style="normal" font-weight="700" text-anchor="end" x="1155" y="1699.25">3.3V Switched Supply</text><circle cx="1347.5" cy="1764.125" fill="black" fill-opacity="0.0" r="22.5" stroke="black" stroke-opacity="1" stroke-width="2" /><circle color="black" cx="1347.5" cy="1764.125" opacity="1" r="15.0" stroke="black" /><g transform="translate(1265.0,1764.125)"><polyline fill="none" opacity="1.0" points="0,0 60,0" stroke="black" stroke-width="10" /></g><g transform="translate(1215.0,1764.125)"><rect fill="white" fill-opacity="1.0" height="55" rx="2" ry="2" stroke="grey" stroke-opacity="1.0" stroke-width="2" width="100" x="-50.0" y="-27.5" /><text fill="black" font-family="Work Sans" font-size="25" font-stretch="normal" font-style="normal" font-weight="700" stroke="yellow" stroke-opacity="1" stroke-width="0.1" text-anchor="middle" x="0" y="8.333333333333334">GND</text></g><text fill="black" font-family="Rubik" font-size="25" font-stretch="normal" font-style="normal" font-weight="700" text-anchor="end" x="1155" y="1774.0">Ground Reference</text><circle cx="1347.5" cy="1838.875" fill="black" fill-opacity="0.0" r="22.5" stroke="black" stroke-opacity="1" stroke-width="2" /><g transform="translate(1347.5,1838.875)"><polygon fill="black" opacity="1" points="7.5,12.990381056766578 7.5,-12.990381056766578 -15.0,0" stroke="black" /></g><g transform="translate(1265.0,1838.875)"><polyline fill="none" opacity="1.0" points="0,0 60,0" stroke="black" stroke-width="10" /></g><g transform="translate(1215.0,1838.875)"><rect fill="white" fill-opacity="1.0" height="55" rx="2" ry="2" stroke="grey" stroke-opacity="1.0" stroke-width="2" width="100" x="-50.0" y="-27.5" /><text fill="black" font-family="Work Sans" font-size="25" font-stretch="normal" font-style="normal" font-weight="700" stroke="yellow" stroke-opacity="1" stroke-width="0.1" text-anchor="middle" x="0" y="8.333333333333334">VBUS</text></g><text fill="black" font-family="Rubik" font-size="25" font-stretch="normal" font-style="normal" font-weight="700" text-anchor="end" x="1155" y="1848.75">5V USB Supplied</text><circle cx="2157.5" cy="867.375" fill="black" fill-opacity="0.0" r="22.5" stroke="black" stroke-opacity="1" stroke-width="2" /><circle color="black" cx="2157.5" cy="867.375" opacity="1" r="15.0" stroke="black" /><g transform="translate(2180.0,867.375)"><polyline fill="none" opacity="1.0" points="0,0 60,0" stroke="black" stroke-width="10" /></g><g transform="translate(2290.0,867.375)"><rect fill="white" fill-opacity="1.0" height="55" rx="2" ry="2" stroke="grey" stroke-opacity="1.0" stroke-width="2" width="100" x="-50.0" y="-27.5" /><text fill="black" font-family="Work Sans" font-size="25" font-stretch="normal" font-style="normal" font-weight="700" stroke="yellow" stroke-opacity="1" stroke-width="0.1" text-anchor="middle" x="0" y="8.333333333333334">GND</text></g><text fill="black" font-family="Rubik" font-size="25" font-stretch="normal" font-style="normal" font-weight="700" text-anchor="start" x="2350" y="877.25">Ground Reference</text><circle cx="2157.5" cy="942.125" fill="black" fill-opacity="0.0" r="22.5" stroke="black" stroke-opacity="1" stroke-width="2" /><g transform="translate(2157.5,942.125)"><polygon fill="black" opacity="1" points="-7.5,12.990381056766578 -7.5,-12.990381056766578 15.0,0" stroke="black" /></g><g transform="translate(2180.0,942.125)"><polyline fill="none" opacity="1.0" points="0,0 60,0" stroke="black" stroke-width="10" /></g><g transform="translate(2290.0,942.125)"><rect fill="white" fill-opacity="1.0" height="55" rx="2" ry="2" stroke="grey" stroke-opacity="1.0" stroke-width="2" width="100" x="-50.0" y="-27.5" /><text fill="black" font-family="Work Sans" font-size="25" font-stretch="normal" font-style="normal" font-weight="700" stroke="yellow" stroke-opacity="1" stroke-width="0.1" text-anchor="middle" x="0" y="8.333333333333334">+3.3V</text></g><text fill="black" font-family="Rubik" font-size="25" font-stretch="normal" font-style="normal" font-weight="700" text-anchor="start" x="2350" y="952.0">3.3V Switched Supply</text><circle cx="2157.5" cy="1016.875" fill="deepskyblue" fill-opacity="0.5" r="22.5" stroke="black" stroke-opacity="1" stroke-width="2" /><circle color="black" cx="2157.5" cy="1016.875" opacity="1" r="15.0" stroke="black" /><g transform="translate(2180.0,1016.875)"><polyline fill="none" opacity="1.0" points="0,0 60,0" stroke="black" stroke-width="5" /></g><g transform="translate(2290.0,1016.875)"><rect fill="white" fill-opacity="1.0" height="55" rx="2" ry="2" stroke="grey" stroke-opacity="1.0" stroke-width="2" width="100" x="-50.0" y="-27.5" /><text fill="black" font-family="Work Sans" font-size="25" font-stretch="normal" font-style="normal" font-weight="700" stroke="yellow" stroke-opacity="1" stroke-width="0.1" text-anchor="middle" x="0" y="8.333333333333334">PB9</text></g><circle cx="2157.5" cy="1091.625" fill="deepskyblue" fill-opacity="0.5" r="22.5" stroke="black" stroke-opacity="1" stroke-width="2" /><circle color="black" cx="2157.5" cy="1091.625" opacity="1" r="15.0" stroke="black" /><g transform="translate(2180.0,1091.625)"><polyline fill="none" opacity="1.0" points="0,0 60,0" stroke="black" stroke-width="5" /></g><g transform="translate(2290.0,1091.625)"><rect fill="white" fill-opacity="1.0" height="55" rx="2" ry="2" stroke="grey" stroke-opacity="1.0" stroke-width="2" width="100" x="-50.0" y="-27.5" /><text fill="black" font-family="Work Sans" font-size="25" font-stretch="normal" font-style="normal" font-weight="700" stroke="yellow" stroke-opacity="1" stroke-width="0.1" text-anchor="middle" x="0" y="8.333333333333334">PB8</text></g><circle cx="2157.5" cy="1166.375" fill="deepskyblue" fill-opacity="0.5" r="22.5" stroke="black" stroke-opacity="1" stroke-width="2" /><circle color="black" cx="2157.5" cy="1166.375" opacity="1" r="15.0" stroke="black" /><g transform="translate(2180.0,1166.375)"><polyline fill="none" opacity="1.0" points="0,0 60,0" stroke="black" stroke-width="5" /></g><g transform="translate(2290.0,1166.375)"><rect fill="white" fill-opacity="1.0" height="55" rx="2" ry="2" stroke="grey" stroke-opacity="1.0" stroke-width="2" width="100" x="-50.0" y="-27.5" /><text fill="black" font-family="Work Sans" font-size="25" font-stretch="normal" font-style="normal" font-weight="700" stroke="yellow" stroke-opacity="1" stroke-width="0.1" text-anchor="middle" x="0" y="8.333333333333334">PB5</text></g><circle cx="2157.5" cy="1241.125" fill="deepskyblue" fill-opacity="0.5" r="22.5" stroke="black" stroke-opacity="1" stroke-width="2" /><circle color="black" cx="2157.5" cy="1241.125" opacity="1" r="15.0" stroke="black" /><g transform="translate(2180.0,1241.125)"><polyline fill="none" opacity="1.0" points="0,0 60,0" stroke="black" stroke-width="5" /></g><g transform="translate(2290.0,1241.125)"><rect fill="white" fill-opacity="1.0" height="55" rx="2" ry="2" stroke="grey" stroke-opacity="1.0" stroke-width="2" width="100" x="-50.0" y="-27.5" /><text fill="black" font-family="Work Sans" font-size="25" font-stretch="normal" font-style="normal" font-weight="700" stroke="yellow" stroke-opacity="1" stroke-width="0.1" text-anchor="middle" x="0" y="8.333333333333334">PB4</text></g><circle cx="2157.5" cy="1315.875" fill="deepskyblue" fill-opacity="0.5" r="22.5" stroke="black" stroke-opacity="1" stroke-width="2" /><circle color="black" cx="2157.5" cy="1315.875" opacity="1" r="15.0" stroke="black" /><g transform="translate(2180.0,1315.875)"><polyline fill="none" opacity="1.0" points="0,0 60,0" stroke="black" stroke-width="5" /></g><g transform="translate(2290.0,1315.875)"><rect fill="white" fill-opacity="1.0" height="55" rx="2" ry="2" stroke="grey" stroke-opacity="1.0" stroke-width="2" width="100" x="-50.0" y="-27.5" /><text fill="black" font-family="Work Sans" font-size="25" font-stretch="normal" font-style="normal" font-weight="700" stroke="yellow" stroke-opacity="1" stroke-width="0.1" text-anchor="middle" x="0" y="8.333333333333334">PB3</text></g><circle cx="2157.5" cy="1390.625" fill="deepskyblue" fill-opacity="0.5" r="22.5" stroke="black" stroke-opacity="1" stroke-width="2" /><circle color="black" cx="2157.5" cy="1390.625" opacity="1" r="15.0" stroke="black" /><g transform="translate(2180.0,1390.625)"><polyline fill="none" opacity="1.0" points="0,0 60,0" stroke="black" stroke-width="5" /></g><g transform="translate(2290.0,1390.625)"><rect fill="white" fill-opacity="1.0" height="55" rx="2" ry="2" stroke="grey" stroke-opacity="1.0" stroke-width="2" width="100" x="-50.0" y="-27.5" /><text fill="black" font-family="Work Sans" font-size="25" font-stretch="normal" font-style="normal" font-weight="700" stroke="yellow" stroke-opacity="1" stroke-width="0.1" text-anchor="middle" x="0" y="8.333333333333334">PB12</text></g><circle cx="2157.5" cy="1465.375" fill="deepskyblue" fill-opacity="0.5" r="22.5" stroke="black" stroke-opacity="1" stroke-width="2" /><circle color="black" cx="2157.5" cy="1465.375" opacity="1" r="15.0" stroke="black" /><g transform="translate(2180.0,1465.375)"><polyline fill="none" opacity="1.0" points="0,0 60,0" stroke="black" stroke-width="5" /></g><g transform="translate(2290.0,1465.375)"><rect fill="white" fill-opacity="1.0" height="55" rx="2" ry="2" stroke="grey" stroke-opacity="1.0" stroke-width="2" width="100" x="-50.0" y="-27.5" /><text fill="black" font-family="Work Sans" font-size="25" font-stretch="normal" font-style="normal" font-weight="700" stroke="yellow" stroke-opacity="1" stroke-width="0.1" text-anchor="middle" x="0" y="8.333333333333334">PB13</text></g><circle cx="2157.5" cy="1540.125" fill="deepskyblue" fill-opacity="0.5" r="22.5" stroke="black" stroke-opacity="1" stroke-width="2" /><circle color="black" cx="2157.5" cy="1540.125" opacity="1" r="15.0" stroke="black" /><g transform="translate(2180.0,1540.125)"><polyline fill="none" opacity="1.0" points="0,0 60,0" stroke="black" stroke-width="5" /></g><g transform="translate(2290.0,1540.125)"><rect fill="white" fill-opacity="1.0" height="55" rx="2" ry="2" stroke="grey" stroke-opacity="1.0" stroke-width="2" width="100" x="-50.0" y="-27.5" /><text fill="black" font-family="Work Sans" font-size="25" font-stretch="normal" font-style="normal" font-weight="700" stroke="yellow" stroke-opacity="1" stroke-width="0.1" text-anchor="middle" x="0" y="8.333333333333334">PB14</text></g><circle cx="2157.5" cy="1614.875" fill="chartreuse" fill-opacity="0.5" r="22.5" stroke="black" stroke-opacity="1" stroke-width="2" /><circle color="black" cx="2157.5" cy="1614.875" opacity="1" r="15.0" stroke="black" /><g transform="translate(2180.0,1614.875)"><polyline fill="none" opacity="1.0" points="0,0 60,0" stroke="black" stroke-width="5" /></g><g transform="translate(2290.0,1614.875)"><rect fill="white" fill-opacity="1.0" height="55" rx="2" ry="2" stroke="grey" stroke-opacity="1.0" stroke-width="2" width="100" x="-50.0" y="-27.5" /><text fill="black" font-family="Work Sans" font-size="25" font-stretch="normal" font-style="normal" font-weight="700" stroke="yellow" stroke-opacity="1" stroke-width="0.1" text-anchor="middle" x="0" y="8.333333333333334">PA10</text></g><circle cx="2157.5" cy="1689.625" fill="chartreuse" fill-opacity="0.5" r="22.5" stroke="black" stroke-opacity="1" stroke-width="2" /><circle color="black" cx="2157.5" cy="1689.625" opacity="1" r="15.0" stroke="black" /><g transform="translate(2180.0,1689.625)"><polyline fill="none" opacity="1.0" points="0,0 60,0" stroke="black" stroke-width="5" /></g><g transform="translate(2290.0,1689.625)"><rect fill="white" fill-opacity="1.0" height="55" rx="2" ry="2" stroke="grey" stroke-opacity="1.0" stroke-width="2" width="100" x="-50.0" y="-27.5" /><text fill="black" font-family="Work Sans" font-size="25" font-stretch="normal" font-style="normal" font-weight="700" stroke="yellow" stroke-opacity="1" stroke-width="0.1" text-anchor="middle" x="0" y="8.333333333333334">PA9</text></g><circle cx="2157.5" cy="1764.375" fill="chartreuse" fill-opacity="0.5" r="22.5" stroke="black" stroke-opacity="1" stroke-width="2" /><circle color="black" cx="2157.5" cy="1764.375" opacity="1" r="15.0" stroke="black" /><g transform="translate(2180.0,1764.375)"><polyline fill="none" opacity="1.0" points="0,0 60,0" stroke="black" stroke-width="5" /></g><g transform="translate(2290.0,1764.375)"><rect fill="white" fill-opacity="1.0" height="55" rx="2" ry="2" stroke="grey" stroke-opacity="1.0" stroke-width="2" width="100" x="-50.0" y="-27.5" /><text fill="black" font-family="Work Sans" font-size="25" font-stretch="normal" font-style="normal" font-weight="700" stroke="yellow" stroke-opacity="1" stroke-width="0.1" text-anchor="middle" x="0" y="8.333333333333334">PA8</text></g><text fill="black" font-family="Rubik" font-size="250" font-stretch="normal" font-style="normal" font-weight="700" stroke="none" text-anchor="middle" x="1700" y="400.0"><tspan fill="blue" stroke="black">GD32VF Breakout</tspan></text></svg>